{"title":"Twenty Four (24) India Season 2 Episode 6 No Logo - 720p 7th Aug","uid":15519214,"size":512478366,"categoryP":"video","categoryS":"hd___tv_shows","magnet":"?xt=urn:btih:9030e8d388c8925ce512ba89f5944769f9ff6197&amp;dn=Twenty+Four+%2824%29+India+Season+2+Episode+6+No+Logo+-+720p+7th+Aug&amp;tr=udp%3A%2F%2Ftracker.leechers-paradise.org%3A6969&amp;tr=udp%3A%2F%2Fzer0day.ch%3A1337&amp;tr=udp%3A%2F%2Fopen.demonii.com%3A1337&amp;tr=udp%3A%2F%2Ftracker.coppersurfer.tk%3A6969&amp;tr=udp%3A%2F%2Fexodus.desync.com%3A6969","seeders":10,"leechers":6,"uploader":null,"files":1,"time":1470727775,"description":"Twenty Four (24) India Season 2 Episode 6 S02E06 - 720p - No Logo - 7th Aug 2016\r\n\r\nSeason 2 of the much-awaited '24' is back and this time, the espionage thriller dives deep into medical terrorism of epic proportions. Drug lord Haroon Sherchan is about to release a deadly airborne virus which is capable of eradicating all humanity. And the only man who can save the country is nowhere to be found! Trying to escape his dark past, Jai Singh Rathod has become a fugitive, a recluse in self-imposed exile. With a billion and more lives at stake, will Jai return to save the nation from this doomsday conspiracy? Can he save innocent civilians from becoming collateral damage?\r\n \nhttp://www.imdb.com/title/tt2792284/ \r\n\r\nScreenshot:- \r\n \nhttp://i.imgur.com/GWM9MCE.jpg\r\n \nhttp://i.imgur.com/G5tCi9W.jpg\r\n \nhttp://i.imgur.com/W0uwZCI.jpg\r\n\r\nMedia Info:-\r\n\r\nGeneral\r\nComplete name                            : E:Twenty Four (24) India S02E06 - 720p - 7th August 2016.mkv\r\nFormat                                   : Matroska\r\nFormat version                           : Version 4 / Version 2\r\nFile size                                : 489 MiB\r\nDuration                                 : 43 min\r\nOverall bit rate                         : 1 581 kb/s\r\nMovie name                               : Twenty Four (24) India S02E06 - 720p - 7th August 2016\r\nEncoded date                             : UTC 2016-08-09 04:01:27\r\nWriting application                      : mkvmerge v9.3.1 ('Mask Machine') 64bit\r\nWriting library                          : libebml v1.3.4 + libmatroska v1.4.5\r\n\r\nVideo\r\nID                                       : 1\r\nFormat                                   : AVC\r\nFormat/Info                              : Advanced Video Codec\r\nFormat profile                           :   \r\nFormat settings, CABAC                   : Yes\r\nFormat settings, ReFrames                : 4 frames\r\nCodec ID                                 : V_MPEG4/ISO/AVC\r\nDuration                                 : 43 min\r\nBit rate                                 : 1 500 kb/s\r\nWidth                                    : 1 280 pixels\r\nHeight                                   : 720 pixels\r\nDisplay aspect ratio                     : 16:9\r\nFrame rate mode                          : Constant\r\nFrame rate                               : 25.000 FPS\r\nColor space                              : YUV\r\nChroma subsampling                       : 4:2:0\r\nBit depth                                : 8 bits\r\nScan type                                : Progressive\r\nBits/(Pixel*Frame)                       : 0.065\r\nStream size                              : 448 MiB (92%)\r\nWriting library                          : x264 core 146 r2538 121396c\r\nDefault                                  : Yes\r\nForced                                   : No\r\n\r\nAudio\r\nID                                       : 2\r\nFormat                                   : AAC\r\nFormat/Info                              : Advanced Audio Codec\r\nFormat profile                           : LC\r\nCodec ID                                 : A_AAC\r\nDuration                                 : 43 min\r\nBit rate                                 : 128 kb/s\r\nChannel(s)                               : 2 channels\r\nChannel positions                        : Front: L R\r\nSampling rate                            : 44.1 kHz\r\nFrame rate                               : 43.066 FPS (1024 spf)\r\nCompression mode                         : Lossy\r\nDelay relative to video                  : -80 ms\r\nStream size                              : 39.6 MiB (8%)\r\nDefault                                  : Yes\r\nForced                                   : No\r\n\r\nPlease Seed and Enjoyeee","torrent":{"xt":"urn:btih:9030e8d388c8925ce512ba89f5944769f9ff6197","amp;dn":"Twenty+Four+%2824%29+India+Season+2+Episode+6+No+Logo+-+720p+7th+Aug","amp;tr":["udp%3A%2F%2Ftracker.leechers-paradise.org%3A6969","udp%3A%2F%2Fzer0day.ch%3A1337","udp%3A%2F%2Fopen.demonii.com%3A1337","udp%3A%2F%2Ftracker.coppersurfer.tk%3A6969","udp%3A%2F%2Fexodus.desync.com%3A6969"],"infoHash":"9030e8d388c8925ce512ba89f5944769f9ff6197","infoHashBuffer":{"type":"Buffer","data":[144,48,232,211,136,200,146,92,229,18,186,137,245,148,71,105,249,255,97,151]},"announce":[],"urlList":[]}}